# This file uses centimeters as units for non-parametric coordinates.

g default
v 0.621595 0.032208 -0.621594
v 0.000000 0.032208 -0.879067
v -0.621594 0.032208 -0.621595
v -0.879067 0.032208 0.000000
v -0.621595 0.032208 0.621594
v 0.000000 0.032208 0.879067
v 0.621594 0.032208 0.621594
v 0.879067 0.032208 0.000000
v 0.707107 1.930639 -0.707106
v 0.000001 1.930639 -1.000000
v -0.707106 1.930639 -0.707107
v -1.000000 1.930639 0.000000
v -0.707107 1.930639 0.707107
v 0.000000 1.930639 1.000000
v 0.707107 1.930639 0.707107
v 1.000000 1.930639 0.000000
v 0.621595 1.930639 -0.621594
v 0.000000 1.930639 -0.879067
v -0.621594 1.930639 -0.621595
v -0.879067 1.930639 0.000000
v -0.621595 1.930639 0.621594
v 0.000000 1.930639 0.879067
v 0.621594 1.930639 0.621594
v 0.879067 1.930639 0.000000
v 0.636404 -0.039712 -0.636403
v 0.707107 0.058357 -0.707106
v 0.000000 -0.039712 -0.900010
v 0.000001 0.058357 -1.000000
v -0.636403 -0.039712 -0.636404
v -0.707106 0.058357 -0.707107
v -0.900010 -0.039712 0.000000
v -1.000000 0.058357 0.000000
v -0.636403 -0.039712 0.636403
v -0.707107 0.058357 0.707107
v 0.000000 -0.039712 0.900010
v 0.000000 0.058357 1.000000
v 0.636403 -0.039712 0.636403
v 0.707107 0.058357 0.707107
v 0.900010 -0.039712 0.000000
v 1.000000 0.058357 0.000000
v 0.000000 0.032208 0.000000
v 0.000000 -0.039712 0.000000
v 0.958130 1.683321 0.156367
v 0.957858 1.751074 0.156367
v 0.958130 1.683321 -0.153415
v 0.957858 1.751074 -0.153415
v 1.423707 1.586373 0.105224
v 1.506585 1.639537 0.105224
v 1.423707 1.586374 -0.102272
v 1.506585 1.639537 -0.102272
v 1.669817 1.140713 0.105224
v 1.768830 1.148319 0.105224
v 1.669817 1.140713 -0.102272
v 1.768830 1.148319 -0.102272
v 1.678474 0.865743 0.105224
v 1.778491 0.861914 0.105224
v 1.678474 0.865743 -0.102272
v 1.778491 0.861914 -0.102272
v 1.464503 0.372880 0.105224
v 1.556608 0.325365 0.105224
v 1.464503 0.372880 -0.102272
v 1.556608 0.325365 -0.102272
v 0.957357 0.243616 0.156367
v 0.958743 0.175677 0.156367
v 0.957357 0.243616 -0.153415
v 0.958743 0.175677 -0.153415
vt 0.650265 0.114326
vt 0.744362 0.818304
vt 0.682300 0.738437
vt 0.680008 0.637385
vt 0.738304 0.554813
vt 0.834293 0.523149
vt 0.930278 0.554828
vt 0.988561 0.637410
vt 0.986252 0.738460
vt 0.924173 0.818285
vt 0.754952 0.802411
vt 0.700279 0.732061
vt 0.698250 0.642961
vt 0.749646 0.570150
vt 0.834280 0.542224
vt 0.918915 0.570150
vt 0.970311 0.642961
vt 0.968283 0.732061
vt 0.913610 0.802420
vt 0.908841 0.514606
vt 0.908733 0.265032
vt 0.818659 0.514645
vt 0.818550 0.265071
vt 0.728476 0.514684
vt 0.728368 0.265110
vt 0.638294 0.514723
vt 0.638186 0.265149
vt 0.548111 0.514762
vt 0.548003 0.265188
vt 0.457929 0.514801
vt 0.457821 0.265227
vt 0.367746 0.514840
vt 0.367638 0.265266
vt 0.277564 0.514879
vt 0.277456 0.265305
vt 0.999023 0.514566
vt 0.998915 0.264993
vt 0.273196 0.023557
vt 0.291197 0.030224
vt 0.277800 0.125271
vt 0.259696 0.123293
vt 0.270601 0.223657
vt 0.252408 0.222590
vt 0.266498 0.322276
vt 0.248281 0.321754
vt 0.265197 0.420901
vt 0.246972 0.420885
vt 0.266682 0.519491
vt 0.248467 0.520007
vt 0.270864 0.618076
vt 0.252681 0.619133
vt 0.277888 0.716464
vt 0.259853 0.718408
vt 0.291176 0.811879
vt 0.273546 0.818688
vt 0.344781 0.018649
vt 0.013697 0.104956
vt 0.006505 0.210073
vt 0.002241 0.315679
vt 0.000977 0.421489
vt 0.002765 0.527300
vt 0.007663 0.632918
vt 0.015759 0.738008
vt 0.026375 0.841264
vt 0.023350 0.000977
vt 0.746354 0.178531
vt 0.554177 0.050122
vt 0.627720 0.000982
vt 0.714470 0.018237
vt 0.763610 0.091781
vt 0.672811 0.227671
vt 0.586061 0.210415
vt 0.536921 0.136872
vt 0.476249 0.215405
vt 0.433597 0.000982
vt 0.526559 0.140109
vt 0.387432 0.233071
vt 0.294470 0.093944
vt 0.312137 0.182761
vt 0.410515 0.117027
vt 0.508893 0.051293
vt 0.546712 0.905736
vt 0.554552 0.830279
vt 0.557009 0.909370
vt 0.567355 0.825473
vt 0.499507 0.895035
vt 0.611611 0.830568
vt 0.608754 0.910558
vt 0.598952 0.825071
vt 0.555697 0.745261
vt 0.570467 0.742604
vt 0.617991 0.747877
vt 0.603403 0.743889
vt 0.556724 0.698421
vt 0.572095 0.701487
vt 0.620597 0.700109
vt 0.605013 0.702398
vt 0.561796 0.609403
vt 0.574229 0.616462
vt 0.618981 0.611644
vt 0.605752 0.616821
vt 0.560596 0.525061
vt 0.571103 0.522061
vt 0.632437 0.532117
vt 0.622581 0.527313
vt 0.528696 0.610588
vt 0.512597 0.531294
vt 0.524209 0.697783
vt 0.523364 0.744030
vt 0.521468 0.825773
vt 0.618961 0.906641
vn 0.000000 1.000000 0.000000
vn 0.000000 1.000000 0.000000
vn 0.000000 1.000000 0.000000
vn 0.000000 1.000000 0.000000
vn 0.000000 1.000000 0.000000
vn 0.000000 1.000000 0.000000
vn 0.000000 1.000000 0.000000
vn 0.000000 1.000000 0.000000
vn 0.000000 1.000000 0.000001
vn 0.000000 1.000000 0.000001
vn 0.000000 1.000000 0.000001
vn 0.000000 1.000000 0.000001
vn 0.000000 1.000000 -0.000000
vn 0.000000 1.000000 -0.000000
vn 0.000000 1.000000 -0.000000
vn 0.000000 1.000000 -0.000000
vn 0.000000 1.000000 0.000000
vn 0.000000 1.000000 0.000000
vn 0.000000 1.000000 0.000000
vn 0.000000 1.000000 0.000000
vn 0.000000 1.000000 0.000000
vn 0.000000 1.000000 0.000000
vn 0.000000 1.000000 0.000000
vn 0.000000 1.000000 0.000000
vn 0.000000 1.000000 0.000000
vn 0.000000 1.000000 0.000000
vn 0.000000 1.000000 0.000000
vn 0.000000 1.000000 0.000000
vn 0.000000 1.000000 0.000000
vn 0.000000 1.000000 0.000000
vn 0.000000 1.000000 0.000000
vn 0.000000 1.000000 0.000000
vn -1.000000 0.000000 -0.000001
vn -0.707107 0.000000 0.707107
vn -0.707107 0.000000 0.707107
vn -1.000000 0.000000 -0.000001
vn -0.000001 0.000000 1.000000
vn -0.000001 0.000000 1.000000
vn 0.707107 0.000000 0.707107
vn 0.707107 0.000000 0.707107
vn 1.000000 0.000000 0.000001
vn 1.000000 0.000000 0.000001
vn 0.707107 0.000000 -0.707107
vn 0.707107 0.000000 -0.707107
vn 0.000000 0.000000 -1.000000
vn 0.000000 0.000000 -1.000000
vn -0.707107 0.000000 -0.707107
vn -0.707107 0.000000 -0.707107
vn 0.999195 -0.040119 0.000000
vn 0.700216 -0.713932 0.000000
vn 0.495128 -0.713930 -0.495128
vn 0.706538 -0.040119 -0.706537
vn -0.000001 -0.713930 -0.700217
vn 0.000001 -0.040119 -0.999195
vn -0.495128 -0.713930 -0.495129
vn -0.706537 -0.040119 -0.706538
vn -0.700216 -0.713931 -0.000000
vn -0.999195 -0.040119 -0.000001
vn -0.495126 -0.713933 0.495126
vn -0.706537 -0.040119 0.706537
vn -0.000000 -0.713933 0.700215
vn 0.000000 -0.040119 0.999195
vn 0.495126 -0.713933 0.495126
vn 0.706537 -0.040119 0.706537
vn 0.707107 0.000000 -0.707106
vn 1.000000 0.000000 0.000000
vn 0.000001 0.000000 -1.000000
vn -0.707106 0.000000 -0.707107
vn -1.000000 0.000000 -0.000001
vn -0.707107 0.000000 0.707107
vn 0.000000 0.000000 1.000000
vn 0.707107 0.000000 0.707107
vn 0.000000 1.000000 0.000000
vn 0.000000 1.000000 0.000000
vn 0.000000 1.000000 0.000000
vn 0.000000 1.000000 0.000000
vn 0.000000 1.000000 0.000000
vn 0.000000 1.000000 0.000000
vn 0.000000 1.000000 0.000000
vn 0.000000 1.000000 0.000000
vn 0.000000 1.000000 0.000000
vn 0.000000 1.000000 0.000000
vn 0.000000 1.000000 0.000000
vn 0.000000 1.000000 0.000000
vn 0.000000 1.000000 0.000000
vn 0.000000 1.000000 0.000000
vn 0.000000 1.000000 0.000000
vn 0.000000 1.000000 0.000000
vn 0.000000 -1.000000 0.000000
vn 0.000000 -1.000000 0.000000
vn 0.000000 -1.000000 0.000000
vn 0.000000 -1.000000 0.000000
vn 0.000000 -1.000000 0.000000
vn 0.000000 -1.000000 0.000000
vn 0.000000 -1.000000 0.000000
vn 0.000000 -1.000000 0.000000
vn 0.000000 -1.000000 0.000000
vn 0.000000 -1.000000 0.000000
vn 0.000000 -1.000000 0.000000
vn 0.000000 -1.000000 0.000000
vn 0.000000 -1.000000 -0.000000
vn 0.000000 -1.000000 -0.000000
vn 0.000000 -1.000000 -0.000000
vn 0.000000 -1.000000 -0.000000
vn -0.203858 -0.979001 -0.000002
vn -0.203858 -0.979001 -0.000002
vn -0.552965 -0.833204 -0.000002
vn -0.552967 -0.833203 -0.000002
vn 0.543482 0.839421 0.000000
vn 0.199192 0.979961 0.000000
vn 0.199192 0.979961 0.000000
vn 0.543482 0.839421 0.000000
vn 0.943958 0.330067 0.000000
vn 0.943958 0.330067 0.000000
vn -0.942815 -0.333317 -0.000001
vn -0.942815 -0.333317 -0.000001
vn -0.966060 0.258318 0.000000
vn -0.966060 0.258318 0.000000
vn 0.968321 -0.249709 0.000000
vn 0.968321 -0.249709 0.000000
vn 0.588722 -0.808335 0.000000
vn 0.588722 -0.808335 0.000000
vn -0.599995 0.800004 0.000000
vn -0.599995 0.800004 0.000000
vn 0.242874 -0.970058 0.000000
vn 0.242874 -0.970058 0.000000
vn -0.246988 0.969018 0.000000
vn -0.246988 0.969018 0.000000
vn 0.087924 -0.060066 0.994315
vn 0.087924 -0.060066 0.994315
vn 0.087924 -0.060066 0.994315
vn 0.087924 -0.060066 0.994315
vn 0.087924 -0.060067 -0.994315
vn 0.087924 -0.060067 -0.994315
vn 0.087924 -0.060067 -0.994315
vn 0.087924 -0.060067 -0.994315
vn 0.000000 0.000000 1.000000
vn 0.000000 0.000000 1.000000
vn 0.000000 0.000000 1.000000
vn 0.000000 0.000000 1.000000
vn 0.000000 0.000000 -1.000000
vn 0.000000 0.000000 -1.000000
vn 0.000000 0.000000 -1.000000
vn 0.000000 0.000000 -1.000000
vn 0.000000 0.000000 1.000000
vn 0.000000 0.000000 1.000000
vn 0.000000 0.000000 1.000000
vn 0.000000 0.000000 1.000000
vn -0.000000 0.000000 -1.000000
vn -0.000000 0.000000 -1.000000
vn -0.000000 0.000000 -1.000000
vn -0.000000 0.000000 -1.000000
vn -0.000000 0.000000 1.000000
vn -0.000000 0.000000 1.000000
vn -0.000000 0.000000 1.000000
vn -0.000000 0.000000 1.000000
vn -0.000000 0.000000 -1.000000
vn -0.000000 0.000000 -1.000000
vn -0.000000 0.000000 -1.000000
vn -0.000000 0.000000 -1.000000
vn 0.076482 0.061932 0.995146
vn 0.076482 0.061932 0.995146
vn 0.076482 0.061932 0.995146
vn 0.076482 0.061932 0.995146
vn 0.076482 0.061933 -0.995146
vn 0.076482 0.061933 -0.995146
vn 0.076482 0.061933 -0.995146
vn 0.076482 0.061933 -0.995146
s off
g CoffeeMug1
f 17/12/1 24/11/2 16/2/3 9/3/4
f 18/13/5 17/12/6 9/3/7 10/4/8
f 19/14/9 18/13/10 10/4/11 11/5/12
f 20/15/13 19/14/14 11/5/15 12/6/16
f 21/16/17 20/15/18 12/6/19 13/7/20
f 22/17/21 21/16/22 13/7/23 14/8/24
f 23/18/25 22/17/26 14/8/27 15/9/28
f 24/19/29 23/18/30 15/9/31 16/10/32
s 1
f 24/36/33 17/20/34 1/21/35 8/37/36
f 1/21/35 17/20/34 18/22/37 2/23/38
f 2/23/38 18/22/37 19/24/39 3/25/40
f 3/25/40 19/24/39 20/26/41 4/27/42
f 4/27/42 20/26/41 21/28/43 5/29/44
f 5/29/44 21/28/43 22/30/45 6/31/46
f 6/31/46 22/30/45 23/32/47 7/33/48
f 7/33/48 23/32/47 24/34/33 8/35/36
s 2
f 40/38/49 39/39/50 25/40/51 26/41/52
f 26/41/52 25/40/51 27/42/53 28/43/54
f 28/43/54 27/42/53 29/44/55 30/45/56
f 30/45/56 29/44/55 31/46/57 32/47/58
f 32/47/58 31/46/57 33/48/59 34/49/60
f 34/49/60 33/48/59 35/50/61 36/51/62
f 36/51/62 35/50/61 37/52/63 38/53/64
f 38/53/64 37/52/63 39/54/50 40/55/49
f 40/38/49 26/41/52 9/57/65 16/65/66
f 10/58/67 9/57/65 26/41/52 28/43/54
f 11/59/68 10/58/67 28/43/54 30/45/56
f 12/60/69 11/59/68 30/45/56 32/47/58
f 13/61/70 12/60/69 32/47/58 34/49/60
f 14/62/71 13/61/70 34/49/60 36/51/62
f 15/63/72 14/62/71 36/51/62 38/53/64
f 16/64/66 15/63/72 38/53/64 40/55/49
s off
f 7/70/73 8/66/74 41/1/75 6/69/76
f 3/73/77 4/67/78 41/1/79 2/72/80
f 4/67/81 5/68/82 6/69/83 41/1/84
f 8/66/85 1/71/86 2/72/87 41/1/88
f 27/81/89 25/76/90 39/74/91 42/80/92
f 35/79/93 33/78/94 31/56/95 42/80/96
f 37/77/97 35/79/98 42/80/99 39/74/100
f 29/75/101 27/81/102 42/80/103 31/56/104
s 3
f 43/82/105 45/86/106 49/110/107 47/83/108
s 4
f 50/89/109 46/88/110 44/84/111 48/85/112
f 48/85/112 52/91/113 54/93/114 50/89/109
s 3
f 49/110/107 53/109/115 51/90/116 47/83/108
f 53/109/115 57/108/117 55/94/118 51/90/116
s 4
f 58/97/119 54/93/114 52/91/113 56/95/120
f 56/95/120 60/99/121 62/101/122 58/97/119
s 3
f 57/108/117 61/106/123 59/98/124 55/94/118
s 4
f 60/99/121 64/103/125 66/105/126 62/101/122
s 3
f 61/106/123 65/107/127 63/102/128 59/98/124
s off
f 48/85/129 44/84/130 43/82/131 47/83/132
f 49/87/133 45/111/134 46/88/135 50/89/136
f 52/91/137 48/85/138 47/83/139 51/90/140
f 53/92/141 49/87/142 50/89/143 54/93/144
f 52/91/145 51/90/146 55/94/147 56/95/148
f 53/92/149 54/93/150 58/97/151 57/96/152
f 60/99/153 56/95/154 55/94/155 59/98/156
f 61/100/157 57/96/158 58/97/159 62/101/160
f 64/103/161 60/99/162 59/98/163 63/102/164
f 65/104/165 61/100/166 62/101/167 66/105/168
