# This file uses centimeters as units for non-parametric coordinates.

g default
v 0.278617 -0.239126 -0.397481
v 0.083980 -0.230050 -0.533554
v -0.169117 -0.245535 -0.509172
v -0.361709 -0.262106 -0.316283
v -0.424922 -0.254190 -0.059439
v -0.341813 -0.247904 0.153664
v -0.131958 -0.240342 0.262736
v 0.105921 -0.244422 0.254001
v 0.281635 -0.259516 0.112427
v 0.347459 -0.257313 -0.131523
v 0.558591 -0.124735 -0.569665
v 0.189485 -0.106596 -0.835670
v -0.275268 -0.119663 -0.797962
v -0.639215 -0.166337 -0.425274
v -0.759377 -0.149995 0.050712
v -0.595172 -0.111994 0.389577
v -0.217116 -0.129438 0.562525
v 0.227585 -0.147259 0.541238
v 0.553009 -0.183252 0.323403
v 0.678457 -0.178192 -0.132800
v 0.795080 0.060794 -0.747993
v 0.301543 0.112421 -1.001039
v -0.377106 0.053881 -0.962349
v -0.840165 0.049115 -0.498786
v -1.003386 0.059623 0.079887
v -0.788493 0.060595 0.549547
v -0.273062 0.093203 0.804287
v 0.339650 0.029616 0.776132
v 0.787738 -0.019276 0.482142
v 0.961232 -0.009327 -0.118922
v 0.940916 0.360453 -0.787068
v 0.409866 0.405107 -1.043018
v -0.416671 0.353546 -1.044430
v -0.939961 0.379713 -0.563164
v -1.116904 0.383001 0.056029
v -0.876492 0.323540 0.626370
v -0.310216 0.449868 0.934734
v 0.416592 0.341484 0.937901
v 0.944609 0.300102 0.592806
v 1.146529 0.310987 -0.051756
v 0.887347 0.750076 -0.691672
v 0.428947 0.770915 -0.926103
v -0.365185 0.762069 -0.942225
v -0.897314 0.777482 -0.618087
v -1.076337 0.750353 -0.017054
v -0.887142 0.606026 0.632713
v -0.318320 0.722349 0.903589
v 0.404579 0.727682 0.925247
v 0.944798 0.737395 0.576977
v 1.113705 0.719476 -0.054251
v 0.731560 1.107380 -0.558990
v 0.341648 1.089675 -0.759749
v -0.256835 1.078458 -0.789512
v -0.714343 1.064174 -0.576953
v -0.908199 0.968074 -0.099382
v -0.740551 0.806845 0.476926
v -0.248137 0.871372 0.732242
v 0.352088 0.932657 0.718195
v 0.794248 1.002847 0.402087
v 0.919065 1.061792 -0.105224
v 0.604938 1.319281 -0.458911
v 0.268853 1.341126 -0.644047
v -0.169230 1.301267 -0.669602
v -0.542855 1.246215 -0.487400
v -0.685392 1.177281 -0.145898
v -0.556841 1.041116 0.278066
v -0.176725 1.060328 0.532606
v 0.297789 1.115052 0.542780
v 0.644971 1.193020 0.291947
v 0.750865 1.286026 -0.112802
v 0.466611 1.504262 -0.317707
v 0.222573 1.529099 -0.460015
v -0.093650 1.495475 -0.489609
v -0.364650 1.437169 -0.355925
v -0.467915 1.390430 -0.121234
v -0.378450 1.326977 0.168566
v -0.107864 1.299372 0.344370
v 0.225343 1.336373 0.360611
v 0.481358 1.408359 0.208423
v 0.569260 1.481081 -0.074055
v 0.287160 1.604914 -0.171326
v 0.153714 1.612634 -0.259821
v -0.017155 1.596716 -0.270392
v -0.159426 1.564196 -0.198633
v -0.215307 1.532907 -0.074518
v -0.163768 1.499551 0.060222
v -0.025325 1.481662 0.153095
v 0.147185 1.499450 0.164101
v 0.286460 1.544786 0.088462
v 0.339525 1.586892 -0.040396
v -0.024952 -0.260713 -0.105037
v 0.063808 1.676369 -0.033728
v -0.282042 1.939378 0.051783
v -0.096936 1.441343 -0.128299
v 0.024749 2.045139 0.074643
v 0.209856 1.547103 -0.105440
v -0.281446 1.934748 0.065203
v -0.096340 1.436712 -0.114880
v 0.210452 1.542473 -0.092020
v 0.025345 2.040509 0.088062
v 0.044724 2.032604 -0.195715
v -0.045933 1.535841 0.048708
v 0.292677 1.946196 -0.279362
v 0.202020 1.449434 -0.034939
v 0.050802 2.037746 -0.183009
v -0.039855 1.540984 0.061414
v 0.208099 1.454576 -0.022233
v 0.298756 1.951338 -0.266656
vt 0.146306 0.082171
vt 0.194045 0.103531
vt 0.261874 0.103554
vt 0.341979 0.095606
vt 0.428227 0.082470
vt 0.506856 0.077501
vt 0.587014 0.087723
vt 0.664566 0.087414
vt 0.735549 0.084067
vt 0.806975 0.086123
vt 0.866213 0.065804
vt 0.071178 0.146482
vt 0.155063 0.175904
vt 0.243760 0.168423
vt 0.345350 0.144313
vt 0.438191 0.143701
vt 0.508044 0.146198
vt 0.586263 0.143996
vt 0.673918 0.147966
vt 0.752560 0.153119
vt 0.844052 0.153333
vt 0.933723 0.135633
vt 0.021821 0.231062
vt 0.126626 0.238499
vt 0.240617 0.214973
vt 0.343169 0.199051
vt 0.432346 0.200320
vt 0.505302 0.201638
vt 0.587914 0.203501
vt 0.679433 0.206508
vt 0.763548 0.215447
vt 0.867907 0.220013
vt 0.983842 0.219565
vt 0.000977 0.320242
vt 0.109731 0.308385
vt 0.238241 0.275110
vt 0.340674 0.266721
vt 0.425424 0.261787
vt 0.504587 0.251218
vt 0.583937 0.278792
vt 0.678818 0.274326
vt 0.764494 0.283660
vt 0.867923 0.298698
vt 0.999023 0.310779
vt 0.031357 0.424205
vt 0.121246 0.396168
vt 0.247104 0.358979
vt 0.336159 0.342161
vt 0.418464 0.330075
vt 0.502549 0.302347
vt 0.576607 0.331851
vt 0.668581 0.346693
vt 0.756437 0.364685
vt 0.851982 0.383365
vt 0.971813 0.421428
vt 0.096330 0.516296
vt 0.167787 0.469367
vt 0.263085 0.430325
vt 0.337668 0.403653
vt 0.412131 0.380607
vt 0.497349 0.354716
vt 0.573194 0.377141
vt 0.659690 0.401169
vt 0.745332 0.427649
vt 0.827649 0.463699
vt 0.899878 0.516904
vt 0.154064 0.563806
vt 0.215487 0.519218
vt 0.282125 0.480194
vt 0.346919 0.450246
vt 0.410242 0.435184
vt 0.488058 0.419713
vt 0.565495 0.430070
vt 0.647596 0.447731
vt 0.723884 0.473651
vt 0.791338 0.515125
vt 0.839565 0.565026
vt 0.219527 0.602963
vt 0.261851 0.562669
vt 0.313234 0.528446
vt 0.367631 0.502190
vt 0.420453 0.490641
vt 0.485847 0.487182
vt 0.554668 0.489493
vt 0.626630 0.500935
vt 0.689291 0.520289
vt 0.739579 0.553265
vt 0.768756 0.596944
vt 0.286737 0.620561
vt 0.307490 0.592533
vt 0.346435 0.571206
vt 0.392868 0.555332
vt 0.438778 0.548675
vt 0.489117 0.543723
vt 0.546494 0.542959
vt 0.603160 0.547823
vt 0.649249 0.564846
vt 0.682914 0.582966
vt 0.698440 0.609060
vt 0.207855 0.018039
vt 0.251241 0.020206
vt 0.320864 0.019210
vt 0.372358 0.013049
vt 0.457833 0.000977
vt 0.574495 0.008805
vt 0.618426 0.013678
vt 0.687890 0.013407
vt 0.764884 0.013525
vt 0.788117 0.014014
vt 0.345514 0.625224
vt 0.355378 0.621345
vt 0.378825 0.615420
vt 0.419804 0.612301
vt 0.485444 0.605228
vt 0.531662 0.600212
vt 0.571130 0.599783
vt 0.594133 0.602111
vt 0.628501 0.617121
vt 0.644068 0.624405
vt 0.108529 0.063400
vt 0.000977 0.063395
vt 0.000980 0.001029
vt 0.108532 0.001034
vt 0.108532 0.001034
vt 0.108529 0.063400
vt 0.000977 0.063395
vt 0.000980 0.001029
vt 0.883244 0.001029
vt 0.990796 0.001042
vt 0.990790 0.053874
vt 0.883238 0.053861
vt 0.883238 0.053861
vt 0.883244 0.001029
vt 0.990796 0.001042
vt 0.990790 0.053874
vn 0.174744 -0.962741 -0.206384
vn 0.076440 -0.952652 -0.294299
vn 0.122637 -0.797441 -0.590803
vn 0.356640 -0.865418 -0.351937
vn -0.077004 -0.955366 -0.285213
vn -0.211439 -0.792767 -0.571677
vn -0.196742 -0.968978 -0.149582
vn -0.482728 -0.824603 -0.294965
vn -0.235011 -0.970729 0.049542
vn -0.528877 -0.846732 0.057743
vn -0.177437 -0.959919 0.216958
vn -0.348255 -0.847633 0.400297
vn -0.072721 -0.960366 0.269088
vn -0.128058 -0.839764 0.527634
vn 0.022623 -0.967935 0.250180
vn 0.077041 -0.862856 0.499544
vn 0.133484 -0.983533 0.121839
vn 0.326019 -0.908314 0.262064
vn 0.192293 -0.979881 -0.053446
vn 0.424163 -0.903854 -0.055987
vn 0.162108 -0.433641 -0.886384
vn 0.617578 -0.575636 -0.535949
vn -0.346384 -0.441675 -0.827612
vn -0.748512 -0.497345 -0.438609
vn -0.849856 -0.525040 0.045587
vn -0.581185 -0.547461 0.602088
vn -0.181366 -0.537473 0.823546
vn 0.168779 -0.595496 0.785429
vn 0.600483 -0.665094 0.443927
vn 0.758975 -0.649571 -0.044889
vn 0.196477 0.062810 -0.978495
vn 0.802800 -0.079661 -0.590904
vn -0.335052 -0.003959 -0.942192
vn -0.838376 -0.100143 -0.535814
vn -0.992774 -0.116429 0.029046
vn -0.725770 -0.168688 0.666935
vn -0.205723 -0.153931 0.966428
vn 0.266731 -0.193653 0.944115
vn 0.788011 -0.219109 0.575352
vn 0.983490 -0.180959 0.000683
vn 0.201088 0.362191 -0.910154
vn 0.762539 0.327215 -0.558089
vn -0.251341 0.314585 -0.915349
vn -0.765361 0.273279 -0.582702
vn -0.941372 0.335672 0.033814
vn -0.725697 0.322043 0.607990
vn -0.234840 0.383868 0.893026
vn 0.263948 0.330804 0.906035
vn 0.772577 0.293304 0.563115
vn 0.962575 0.270660 -0.013839
vn 0.190121 0.479694 -0.856591
vn 0.662387 0.524513 -0.534911
vn -0.164078 0.490884 -0.855635
vn -0.604086 0.588212 -0.537668
vn -0.725154 0.682409 0.092029
vn -0.513317 0.728446 0.453733
vn -0.222215 0.747372 0.626143
vn 0.164127 0.715799 0.678744
vn 0.624095 0.645787 0.439846
vn 0.834666 0.549390 -0.038779
vn 0.183205 0.584821 -0.790203
vn 0.591219 0.632446 -0.500472
vn -0.172851 0.604597 -0.777551
vn -0.555987 0.710179 -0.431885
vn -0.676541 0.722248 0.143701
vn -0.518158 0.702219 0.488263
vn -0.258052 0.694509 0.671615
vn 0.118331 0.683032 0.720739
vn 0.548150 0.665959 0.505995
vn 0.759183 0.650203 0.029601
vn 0.159962 0.799110 -0.579513
vn 0.499115 0.789238 -0.357754
vn -0.200187 0.793078 -0.575285
vn -0.511293 0.795483 -0.325247
vn -0.655847 0.738775 0.155166
vn -0.535193 0.664041 0.522129
vn -0.258873 0.656999 0.708052
vn 0.076932 0.674598 0.734166
vn 0.458504 0.701344 0.545794
vn 0.642987 0.758140 0.108584
vn 0.088084 0.938437 -0.334031
vn 0.325106 0.930237 -0.170189
vn -0.196754 0.923170 -0.330218
vn -0.410870 0.897744 -0.158877
vn -0.497778 0.848328 0.180434
vn -0.397893 0.780996 0.481380
vn -0.211570 0.745262 0.632316
vn -0.001845 0.759044 0.651037
vn 0.251185 0.820179 0.514015
vn 0.399749 0.898913 0.179319
vn 0.005187 -0.999965 -0.006576
vn -0.099198 0.964211 0.245878
vn 0.041976 -0.325906 0.944470
vn 0.041976 -0.325906 0.944470
vn 0.041976 -0.325906 0.944470
vn 0.041976 -0.325906 0.944470
vn -0.041976 0.325906 -0.944470
vn -0.041976 0.325906 -0.944470
vn -0.041976 0.325906 -0.944470
vn -0.041976 0.325906 -0.944470
vn 0.405379 0.342957 0.847377
vn 0.405379 0.342957 0.847377
vn 0.405379 0.342957 0.847377
vn 0.405379 0.342957 0.847377
vn -0.405379 -0.342957 -0.847377
vn -0.405379 -0.342957 -0.847377
vn -0.405379 -0.342957 -0.847377
vn -0.405379 -0.342957 -0.847377
s 1
g Trashbag
f 1/1/1 2/2/2 12/13/3 11/12/4
f 2/2/2 3/3/5 13/14/6 12/13/3
f 3/3/5 4/4/7 14/15/8 13/14/6
f 4/4/7 5/5/9 15/16/10 14/15/8
f 5/5/9 6/6/11 16/17/12 15/16/10
f 6/6/11 7/7/13 17/18/14 16/17/12
f 7/7/13 8/8/15 18/19/16 17/18/14
f 8/8/15 9/9/17 19/20/18 18/19/16
f 9/9/17 10/10/19 20/21/20 19/20/18
f 10/10/19 1/11/1 11/22/4 20/21/20
f 11/12/4 12/13/3 22/24/21 21/23/22
f 12/13/3 13/14/6 23/25/23 22/24/21
f 13/14/6 14/15/8 24/26/24 23/25/23
f 14/15/8 15/16/10 25/27/25 24/26/24
f 15/16/10 16/17/12 26/28/26 25/27/25
f 16/17/12 17/18/14 27/29/27 26/28/26
f 17/18/14 18/19/16 28/30/28 27/29/27
f 18/19/16 19/20/18 29/31/29 28/30/28
f 19/20/18 20/21/20 30/32/30 29/31/29
f 20/21/20 11/22/4 21/33/22 30/32/30
f 21/23/22 22/24/21 32/35/31 31/34/32
f 22/24/21 23/25/23 33/36/33 32/35/31
f 23/25/23 24/26/24 34/37/34 33/36/33
f 24/26/24 25/27/25 35/38/35 34/37/34
f 25/27/25 26/28/26 36/39/36 35/38/35
f 26/28/26 27/29/27 37/40/37 36/39/36
f 27/29/27 28/30/28 38/41/38 37/40/37
f 28/30/28 29/31/29 39/42/39 38/41/38
f 29/31/29 30/32/30 40/43/40 39/42/39
f 30/32/30 21/33/22 31/44/32 40/43/40
f 31/34/32 32/35/31 42/46/41 41/45/42
f 32/35/31 33/36/33 43/47/43 42/46/41
f 33/36/33 34/37/34 44/48/44 43/47/43
f 34/37/34 35/38/35 45/49/45 44/48/44
f 35/38/35 36/39/36 46/50/46 45/49/45
f 36/39/36 37/40/37 47/51/47 46/50/46
f 37/40/37 38/41/38 48/52/48 47/51/47
f 38/41/38 39/42/39 49/53/49 48/52/48
f 39/42/39 40/43/40 50/54/50 49/53/49
f 40/43/40 31/44/32 41/55/42 50/54/50
f 41/45/42 42/46/41 52/57/51 51/56/52
f 42/46/41 43/47/43 53/58/53 52/57/51
f 43/47/43 44/48/44 54/59/54 53/58/53
f 44/48/44 45/49/45 55/60/55 54/59/54
f 45/49/45 46/50/46 56/61/56 55/60/55
f 46/50/46 47/51/47 57/62/57 56/61/56
f 47/51/47 48/52/48 58/63/58 57/62/57
f 48/52/48 49/53/49 59/64/59 58/63/58
f 49/53/49 50/54/50 60/65/60 59/64/59
f 50/54/50 41/55/42 51/66/52 60/65/60
f 51/56/52 52/57/51 62/68/61 61/67/62
f 52/57/51 53/58/53 63/69/63 62/68/61
f 53/58/53 54/59/54 64/70/64 63/69/63
f 54/59/54 55/60/55 65/71/65 64/70/64
f 55/60/55 56/61/56 66/72/66 65/71/65
f 56/61/56 57/62/57 67/73/67 66/72/66
f 57/62/57 58/63/58 68/74/68 67/73/67
f 58/63/58 59/64/59 69/75/69 68/74/68
f 59/64/59 60/65/60 70/76/70 69/75/69
f 60/65/60 51/66/52 61/77/62 70/76/70
f 61/67/62 62/68/61 72/79/71 71/78/72
f 62/68/61 63/69/63 73/80/73 72/79/71
f 63/69/63 64/70/64 74/81/74 73/80/73
f 64/70/64 65/71/65 75/82/75 74/81/74
f 65/71/65 66/72/66 76/83/76 75/82/75
f 66/72/66 67/73/67 77/84/77 76/83/76
f 67/73/67 68/74/68 78/85/78 77/84/77
f 68/74/68 69/75/69 79/86/79 78/85/78
f 69/75/69 70/76/70 80/87/80 79/86/79
f 70/76/70 61/77/62 71/88/72 80/87/80
f 71/78/72 72/79/71 82/90/81 81/89/82
f 72/79/71 73/80/73 83/91/83 82/90/81
f 73/80/73 74/81/74 84/92/84 83/91/83
f 74/81/74 75/82/75 85/93/85 84/92/84
f 75/82/75 76/83/76 86/94/86 85/93/85
f 76/83/76 77/84/77 87/95/87 86/94/86
f 77/84/77 78/85/78 88/96/88 87/95/87
f 78/85/78 79/86/79 89/97/89 88/96/88
f 79/86/79 80/87/80 90/98/90 89/97/89
f 80/87/80 71/88/72 81/99/82 90/98/90
f 2/2/2 1/1/1 91/100/91
f 3/3/5 2/2/2 91/101/91
f 4/4/7 3/3/5 91/102/91
f 5/5/9 4/4/7 91/103/91
f 6/6/11 5/5/9 91/104/91
f 7/7/13 6/6/11 91/105/91
f 8/8/15 7/7/13 91/106/91
f 9/9/17 8/8/15 91/107/91
f 10/10/19 9/9/17 91/108/91
f 1/11/1 10/10/19 91/109/91
f 81/89/82 82/90/81 92/110/92
f 82/90/81 83/91/83 92/111/92
f 83/91/83 84/92/84 92/112/92
f 84/92/84 85/93/85 92/113/92
f 85/93/85 86/94/86 92/114/92
f 86/94/86 87/95/87 92/115/92
f 87/95/87 88/96/88 92/116/92
f 88/96/88 89/97/89 92/117/92
f 89/97/89 90/98/90 92/118/92
f 90/98/90 81/99/82 92/119/92
s off
f 97/120/93 98/121/94 99/122/95 100/123/96
f 93/124/97 95/125/98 96/126/99 94/127/100
f 105/128/101 106/129/102 107/130/103 108/131/104
f 101/132/105 103/133/106 104/134/107 102/135/108
