# This file uses centimeters as units for non-parametric coordinates.

g default
v -0.982159 -0.269873 -0.194438
v -0.970350 -0.155811 -0.311839
v -0.966027 0.000000 -0.354811
v -0.970350 0.155811 -0.311839
v -0.982159 0.269873 -0.194438
v -0.998291 0.311623 -0.034065
v -1.014423 0.269873 0.126308
v -1.026232 0.155811 0.243709
v -1.030555 0.000000 0.286681
v -1.026232 -0.155811 0.243709
v -1.014423 -0.269873 0.126308
v -0.998291 -0.311623 -0.034065
v 1.038058 -0.242633 -0.177853
v 1.002951 -0.141483 -0.299705
v 0.976330 0.005778 -0.350419
v 0.928512 0.157968 -0.314853
v 0.945359 0.275082 -0.204983
v 1.025087 0.329287 -0.052214
v 1.068061 0.304466 0.106458
v 1.106479 0.205362 0.228991
v 1.130047 0.058530 0.282552
v 1.085806 -0.096881 0.251800
v 1.062637 -0.217786 0.140833
v 1.072287 -0.270541 -0.017501
v -0.998291 0.000000 -0.034065
v 1.001089 0.030003 -0.032581
v 0.361432 -0.215685 -0.161182
v 0.361432 -0.249051 0.000000
v 0.361432 -0.215685 0.161182
v 0.361432 -0.124526 0.279176
v 0.361432 -0.000000 0.322364
v 0.361432 0.124526 0.279176
v 0.361432 0.215685 0.161182
v 0.361432 0.249051 0.000000
v 0.361432 0.215685 -0.161182
v 0.361432 0.124526 -0.279176
v 0.361432 -0.000000 -0.322364
v 0.361432 -0.124526 -0.279176
v -0.304861 -0.228754 -0.126308
v -0.320993 -0.264143 0.034065
v -0.337125 -0.228754 0.194438
v -0.348934 -0.132071 0.311839
v -0.353257 0.000000 0.354811
v -0.348934 0.132071 0.311839
v -0.337125 0.228754 0.194438
v -0.320993 0.264143 0.034065
v -0.304861 0.228754 -0.126308
v -0.293052 0.132071 -0.243709
v -0.288729 0.000000 -0.286681
v -0.293052 -0.132071 -0.243709
vt 0.290839 0.009865
vt 0.384560 0.006826
vt 0.424375 0.134420
vt 0.330654 0.137459
vt 0.478281 0.003787
vt 0.518095 0.131381
vt 0.404467 0.262980
vt 0.310274 0.262980
vt 0.222231 0.012089
vt 0.262046 0.139684
vt 0.546889 0.001562
vt 0.586704 0.129156
vt 0.498661 0.262980
vt 0.373954 0.388004
vt 0.284677 0.372985
vt 0.241319 0.262980
vt 0.567616 0.262980
vt 0.466681 0.396100
vt 0.220470 0.369811
vt 0.538288 0.403337
vt 0.703091 0.003787
vt 0.796812 0.006826
vt 0.756997 0.134420
vt 0.663277 0.131381
vt 0.890533 0.009865
vt 0.850718 0.137459
vt 0.776905 0.262980
vt 0.682711 0.262980
vt 0.634483 0.001562
vt 0.594668 0.129156
vt 0.959141 0.012089
vt 0.919326 0.139684
vt 0.871098 0.262980
vt 0.787132 0.396896
vt 0.694603 0.395078
vt 0.613757 0.262980
vt 0.940053 0.262980
vt 0.880841 0.390448
vt 0.629755 0.399443
vt 0.952050 0.383834
vt 0.906953 0.428547
vt 0.973610 0.497155
vt 0.815898 0.590876
vt 0.998008 0.590876
vt 0.815898 0.403434
vt 0.973610 0.684596
vt 0.724843 0.428547
vt 0.906953 0.753205
vt 0.658186 0.497155
vt 0.815898 0.778317
vt 0.633788 0.590876
vt 0.724843 0.753205
vt 0.658186 0.684596
vt 0.421837 0.681641
vt 0.362726 0.752850
vt 0.262511 0.596745
vt 0.276668 0.782487
vt 0.438147 0.587932
vt 0.187729 0.761702
vt 0.407317 0.495403
vt 0.119289 0.697495
vt 0.336661 0.430554
vt 0.087612 0.608218
vt 0.245840 0.412583
vt 0.102117 0.515491
vt 0.160032 0.443884
vt 0.627653 0.779074
vt 0.536598 0.778259
vt 0.536598 0.650665
vt 0.613779 0.651479
vt 0.445543 0.779074
vt 0.459416 0.651479
vt 0.536598 0.528183
vt 0.609369 0.528183
vt 0.463826 0.528183
vt 0.533221 0.412344
vt 0.619279 0.407329
vt 0.444282 0.421352
vt 0.030949 0.002376
vt 0.122004 0.001562
vt 0.122004 0.129156
vt 0.044823 0.129970
vt 0.213059 0.002376
vt 0.199186 0.129970
vt 0.122004 0.263795
vt 0.049233 0.263795
vt 0.194776 0.263795
vt 0.087800 0.408592
vt 0.001992 0.404152
vt 0.178621 0.400257
vn 0.097516 -0.876806 -0.470853
vn 0.105375 -0.535674 -0.837824
vn 0.040127 -0.578746 -0.814520
vn 0.048482 -0.910427 -0.410818
vn 0.105290 -0.000000 -0.994442
vn 0.033138 -0.000000 -0.999451
vn 0.105375 0.535674 -0.837824
vn 0.040127 0.578746 -0.814520
vn 0.097516 0.876806 -0.470853
vn 0.048482 0.910427 -0.410818
vn 0.068589 0.997081 -0.033533
vn 0.041667 0.998460 0.036625
vn 0.012352 0.909153 0.416278
vn 0.017057 0.881129 0.472568
vn -0.058457 0.574178 0.816641
vn -0.012412 0.540312 0.841373
vn -0.094878 0.000000 0.995489
vn -0.025524 0.000000 0.999674
vn -0.058457 -0.574178 0.816641
vn -0.012412 -0.540312 0.841373
vn 0.012352 -0.909153 0.416278
vn 0.017057 -0.881129 0.472568
vn 0.068589 -0.997081 -0.033533
vn 0.041667 -0.998460 0.036626
vn -0.994979 -0.000000 -0.100086
vn -0.994979 0.000000 -0.100085
vn -0.994979 0.000000 -0.100085
vn -0.994979 0.000000 -0.100085
vn -0.994979 0.000000 -0.100085
vn -0.994979 -0.000000 -0.100085
vn -0.994979 0.000000 -0.100085
vn -0.994979 0.000000 -0.100086
vn -0.994979 -0.000000 -0.100086
vn -0.994979 -0.000000 -0.100086
vn -0.994979 0.000000 -0.100086
vn -0.994979 -0.000000 -0.100086
vn -0.994979 0.000000 -0.100085
vn 0.968015 0.206888 -0.141931
vn 0.979870 0.171033 -0.102968
vn 0.969414 0.066003 -0.236388
vn 0.967696 0.234247 -0.093237
vn 0.966530 0.203471 -0.156269
vn 0.943689 -0.017796 -0.330354
vn 0.929719 -0.097841 -0.355034
vn 0.948051 -0.074683 -0.309228
vn 0.932351 -0.022033 -0.360881
vn 0.924580 -0.089972 -0.370211
vn 0.945918 -0.075534 -0.315489
vn 0.979207 0.141474 -0.145393
vn 0.969835 0.225052 -0.093658
vn -0.002408 -0.999823 0.018636
vn -0.024923 -0.907818 -0.418623
vn -0.042210 -0.918348 -0.393517
vn -0.024971 -0.999114 0.033867
vn 0.025092 -0.893150 0.449059
vn 0.012270 -0.883141 0.468948
vn 0.046607 -0.559545 0.827489
vn 0.049727 -0.506163 0.861003
vn 0.046690 -0.001333 0.998909
vn 0.040591 0.093669 0.994776
vn 0.019763 0.560301 0.828053
vn -0.018585 0.627496 0.778398
vn -0.019098 0.898446 0.438668
vn -0.083199 0.920750 0.381179
vn -0.048979 0.998800 -0.000238
vn -0.118532 0.992656 -0.024175
vn -0.062968 0.895798 -0.439979
vn -0.120572 0.890309 -0.439103
vn -0.061989 0.545266 -0.835968
vn -0.087585 0.532317 -0.842002
vn -0.052211 -0.025203 -0.998318
vn -0.051767 -0.052013 -0.997304
vn -0.040393 -0.579841 -0.813727
vn -0.043410 -0.603282 -0.796346
s 1
g CigarettebuttLP
f 1/25/1 2/31/2 50/32/3 39/26/4
f 2/67/2 3/68/5 49/69/6 50/70/3
f 3/68/5 4/71/7 48/72/8 49/69/6
f 4/9/7 5/1/9 47/4/10 48/10/8
f 5/1/9 6/2/11 46/3/12 47/4/10
f 6/2/11 7/5/13 45/6/14 46/3/12
f 7/5/13 8/11/15 44/12/16 45/6/14
f 8/79/15 9/80/17 43/81/18 44/82/16
f 9/80/17 10/83/19 42/84/20 43/81/18
f 10/29/19 11/21/21 41/24/22 42/30/20
f 11/21/21 12/22/23 40/23/24 41/24/22
f 12/22/23 1/25/1 39/26/4 40/23/24
s 2
f 2/41/25 1/42/26 25/43/27
f 3/45/28 2/41/25 25/43/27
f 4/47/29 3/45/28 25/43/27
f 5/49/30 4/47/29 25/43/27
f 6/51/31 5/49/30 25/43/27
f 7/53/32 6/51/31 25/43/27
f 8/52/33 7/53/32 25/43/27
f 9/50/34 8/52/33 25/43/27
f 10/48/35 9/50/34 25/43/27
f 11/46/36 10/48/35 25/43/27
f 12/44/37 11/46/36 25/43/27
f 1/42/26 12/44/37 25/43/27
s 3
f 13/54/38 14/55/39 26/56/40
f 14/55/39 15/57/41 26/56/40
f 15/57/41 16/59/42 26/56/40
f 16/59/42 17/61/43 26/56/40
f 17/61/43 18/63/44 26/56/40
f 18/63/44 19/65/45 26/56/40
f 19/65/45 20/66/46 26/56/40
f 20/66/46 21/64/47 26/56/40
f 21/64/47 22/62/48 26/56/40
f 22/62/48 23/60/49 26/56/40
f 23/60/49 24/58/50 26/56/40
f 24/58/50 13/54/38 26/56/40
s 1
f 28/27/51 27/33/52 13/38/53 24/34/54
f 29/28/55 28/27/51 24/34/54 23/35/56
f 30/36/57 29/28/55 23/35/56 22/39/58
f 31/85/59 30/87/57 22/90/58 21/88/60
f 32/86/61 31/85/59 21/88/60 20/89/62
f 33/13/63 32/17/61 20/20/62 19/18/64
f 34/7/65 33/13/63 19/18/64 18/14/66
f 35/8/67 34/7/65 18/14/66 17/15/68
f 36/16/69 35/8/67 17/15/68 16/19/70
f 37/73/71 36/75/69 16/78/70 15/76/72
f 38/74/73 37/73/71 15/76/72 14/77/74
f 27/33/52 38/37/73 14/40/74 13/38/53
f 40/23/24 39/26/4 27/33/52 28/27/51
f 41/24/22 40/23/24 28/27/51 29/28/55
f 42/30/20 41/24/22 29/28/55 30/36/57
f 43/81/18 42/84/20 30/87/57 31/85/59
f 44/82/16 43/81/18 31/85/59 32/86/61
f 45/6/14 44/12/16 32/17/61 33/13/63
f 46/3/12 45/6/14 33/13/63 34/7/65
f 47/4/10 46/3/12 34/7/65 35/8/67
f 48/10/8 47/4/10 35/8/67 36/16/69
f 49/69/6 48/72/8 36/75/69 37/73/71
f 50/70/3 49/69/6 37/73/71 38/74/73
f 39/26/4 50/32/3 38/37/73 27/33/52
