# This file uses centimeters as units for non-parametric coordinates.

g default
v -9.678216 0.010915 5.330711
v -8.892803 0.012596 5.335625
v -9.775490 0.526425 5.022218
v -9.630800 0.554265 5.022218
v -9.775490 0.526425 4.874874
v -9.630800 0.554265 4.874874
v -9.678216 0.010915 4.566381
v -8.889087 -0.009854 4.551705
v -9.801628 0.521395 4.948546
v -9.903911 -0.066700 4.948546
v -8.471299 -0.059822 4.948546
v -9.606399 0.558960 4.948546
v -9.671279 0.222328 5.200904
v -9.786373 0.320540 4.948546
v -9.671279 0.222328 4.696188
v -9.219629 0.195990 4.731099
v -9.070240 0.179588 4.904298
v -9.219629 0.195990 5.179541
v -9.293335 -0.012450 5.451295
v -9.502421 0.222328 5.200904
v -9.708788 0.539259 5.041056
v -9.708788 0.539259 4.856037
v -9.502421 0.222328 4.696188
v -9.309965 -0.014846 4.445819
v -9.295002 -0.059822 4.948546
v -9.824261 0.592364 5.049819
v -9.734231 0.613968 5.075714
v -9.859540 0.583898 4.948546
v -9.734231 0.613968 4.821379
v -9.824261 0.592364 4.847273
v -9.628968 0.639228 5.049819
v -9.596033 0.647132 4.948546
v -9.628968 0.639228 4.847273
v -9.802185 0.667526 5.006915
v -9.747902 0.682103 5.021840
v -9.823458 0.661814 4.948546
v -9.747902 0.682103 4.875253
v -9.802185 0.667526 4.890177
v -9.684433 0.699145 5.006915
v -9.664575 0.704478 4.948546
v -9.684433 0.699145 4.890177
v -10.346560 2.694853 5.006917
v -10.292278 2.709429 5.021842
v -10.367832 2.689141 4.948546
v -10.292277 2.709429 4.875251
v -10.346560 2.694853 4.890176
v -10.228811 2.726471 5.006918
v -10.208952 2.731804 4.948547
v -10.228810 2.726471 4.890176
v -10.343878 2.741273 4.991717
v -10.303731 2.755849 5.002756
v -10.359611 2.735561 4.948546
v -10.303730 2.755849 4.894338
v -10.343878 2.741273 4.905375
v -10.256791 2.772891 4.991718
v -10.242103 2.778223 4.948547
v -10.256790 2.772891 4.905375
v -10.331606 2.774843 4.966344
v -10.312004 2.783139 4.970895
v -10.311359 2.783412 4.948546
v -10.339287 2.771593 4.948546
v -10.312004 2.783138 4.926198
v -10.331606 2.774843 4.930748
v -10.289087 2.792837 4.966345
v -10.281916 2.795872 4.948547
v -10.289086 2.792837 4.930748
vt 0.104344 0.418294
vt 0.377808 0.506485
vt 0.000977 0.532666
vt 0.026450 0.386372
vt 0.466557 0.001002
vt 0.202554 0.496154
vt 0.474967 0.370445
vt 0.399542 0.407800
vt 0.437086 0.001002
vt 0.495933 0.033634
vt 0.466557 0.033634
vt 0.437086 0.033634
vt 0.495933 0.062240
vt 0.977765 0.002192
vt 0.956472 0.001963
vt 0.991487 0.717773
vt 0.970517 0.715474
vt 0.949565 0.714064
vt 0.983434 0.734356
vt 0.042817 0.041331
vt 0.049080 0.024751
vt 0.026673 0.034638
vt 0.032563 0.031909
vt 0.034784 0.025810
vt 0.322147 0.001002
vt 0.349675 0.001002
vt 0.349675 0.033634
vt 0.322147 0.033634
vt 0.162722 0.270690
vt 0.260872 0.221771
vt 0.278540 0.451483
vt 0.377811 0.033634
vt 0.892479 0.001403
vt 0.871358 0.001265
vt 0.327819 0.265599
vt 0.377811 0.062239
vt 0.886643 0.713294
vt 0.865848 0.713355
vt 0.907413 0.713129
vt 0.007434 0.008823
vt 0.000977 0.025289
vt 0.023296 0.000996
vt 0.020648 0.030933
vt 0.025519 0.025438
vt 0.026827 0.048972
vt 0.011279 0.042078
vt 0.015766 0.024401
vt 0.018138 0.018656
vt 0.030583 0.020119
vt 0.023662 0.015808
vt 0.040896 0.009842
vt 0.642637 0.490139
vt 0.642637 0.282229
vt 0.814300 0.281659
vt 0.773127 0.413077
vt 0.512147 0.413077
vt 0.470982 0.287338
vt 0.642637 0.000977
vt 0.774805 0.144898
vt 0.507136 0.143630
vt 0.111824 0.142715
vt 0.237990 0.000977
vt 0.378872 0.128889
vt 0.127439 0.363637
vt 0.043871 0.257377
vt 0.451454 0.247841
vt 0.372529 0.354916
vt 0.211703 0.474622
vt 0.228218 0.453051
vt 0.296589 0.471787
vt 0.307283 0.492596
vt 0.409371 0.001002
vt 0.409371 0.033634
vt 0.437086 0.062239
vt 0.936626 0.001766
vt 0.377811 0.001002
vt 0.930019 0.714004
vt 0.913608 0.001565
vt 0.522117 0.001002
vt 0.495933 0.001002
vt 0.522117 0.033634
vt 0.549271 0.001002
vt 0.549271 0.033634
vt 0.848409 0.001127
vt 0.828647 0.001002
vt 0.549271 0.062239
vt 0.843161 0.714872
vt 0.823485 0.716250
vt 0.253169 0.446000
vt 0.199076 0.522480
vt 0.409371 0.062239
vt 0.349675 0.062239
vt 0.322147 0.062239
vt 0.522117 0.062239
vt 0.466557 0.062239
vt 0.999023 0.002440
vt 0.928887 0.730939
vt 0.907015 0.732265
vt 0.887120 0.731874
vt 0.867674 0.732239
vt 0.847054 0.731838
vt 0.966925 0.730584
vt 0.947892 0.730445
vt 0.830784 0.732954
vt 0.133206 0.515139
vt 0.510910 0.514425
vt 0.312673 0.518601
vn -0.555592 0.477761 0.680487
vn 0.067877 0.741586 0.667415
vn 0.006984 0.609282 0.792923
vn -0.616460 0.405691 0.674827
vn -0.617424 0.673968 0.405654
vn -0.299287 0.780294 0.549152
vn -0.389728 0.920930 -0.000005
vn -0.801086 0.598549 -0.000001
vn -0.619417 0.404091 -0.673077
vn 0.028390 0.620073 -0.784031
vn 0.087088 0.746371 -0.659808
vn -0.559424 0.476454 -0.678259
vn -0.036133 -0.999344 0.002475
vn -0.002565 -0.999939 0.010768
vn 0.003771 -0.988836 0.148960
vn -0.034407 -0.988324 0.148434
vn 0.328832 0.898452 0.290954
vn 0.386813 0.922138 -0.006152
vn 0.429844 0.902360 -0.031312
vn 0.333629 0.844618 0.418702
vn -0.984800 0.173690 -0.000000
vn -0.950564 0.310528 -0.000000
vn -0.037093 -0.988619 -0.145795
vn -0.008742 -0.991924 -0.126534
vn 0.316729 0.816932 -0.481980
vn 0.329527 0.869552 -0.367821
vn -0.299280 0.780294 -0.549156
vn -0.617425 0.673964 -0.405659
vn -0.995734 -0.092273 -0.000000
vn -0.706241 0.147088 0.692523
vn -0.706239 0.147090 -0.692525
vn 0.028345 0.480519 -0.876526
vn 0.583813 0.811811 0.011177
vn 0.355033 0.680886 -0.640582
vn 0.403715 0.716053 0.569457
vn 0.011512 0.475638 0.879566
vn 0.019293 0.897094 0.441419
vn 0.238178 0.971221 0.000007
vn 0.019299 0.897092 -0.441422
vn 0.013459 -0.993690 -0.111352
vn 0.023875 -0.999581 0.016358
vn 0.034316 -0.988208 0.149225
vn -0.469844 -0.610732 0.637380
vn 0.107169 -0.385835 0.916322
vn -0.033117 0.087889 0.995580
vn -0.698264 -0.108047 0.707639
vn -0.735453 -0.677575 0.000000
vn -0.981573 -0.191087 -0.000000
vn 0.107172 -0.385831 -0.916324
vn -0.469843 -0.610733 -0.637380
vn -0.698264 -0.108048 -0.707639
vn -0.033114 0.087890 -0.995580
vn 0.700270 -0.237213 0.673314
vn 0.615602 0.250109 0.747315
vn 0.992723 -0.120417 0.000001
vn 0.941351 0.337430 0.000000
vn 0.700268 -0.237212 -0.673316
vn 0.615602 0.250109 -0.747315
vn -0.140721 0.592000 0.793557
vn -0.665120 0.505512 0.549612
vn -0.905874 0.423546 0.000000
vn -0.665119 0.505512 -0.549613
vn -0.140721 0.591999 -0.793559
vn 0.345620 0.738147 0.579385
vn 0.635375 0.772204 0.000000
vn 0.345622 0.738146 -0.579384
vn -0.660315 -0.177307 0.729757
vn -0.000015 -0.000003 1.000000
vn -0.002010 0.007056 0.999973
vn -0.662203 -0.170006 0.729784
vn -0.965788 -0.259333 -0.000003
vn -0.967693 -0.252132 -0.000003
vn 0.000007 -0.000001 -1.000000
vn -0.660315 -0.177306 -0.729758
vn -0.662203 -0.170005 -0.729785
vn -0.001987 0.007058 -0.999973
vn 0.625285 0.167899 0.762121
vn 0.623375 0.175332 0.762012
vn 0.965788 0.259333 0.000004
vn 0.963792 0.266656 0.000004
vn 0.625285 0.167901 -0.762121
vn 0.623376 0.175335 -0.762011
vn -0.143248 0.468383 0.871836
vn -0.691021 0.351480 0.631626
vn -0.963692 0.267016 -0.000004
vn -0.691019 0.351465 -0.631636
vn -0.143240 0.468385 -0.871836
vn 0.400254 0.629222 0.666241
vn 0.715168 0.698952 0.000006
vn 0.400260 0.629221 -0.666238
s 1
g Mop
f 1/4/1 19/65/2 20/64/3 13/1/4
s 2
f 58/22/5 59/43/6 60/44/7 61/23/8
s 1
f 15/8/9 23/67/10 24/66/11 7/7/12
s 4
f 10/52/13 25/53/14 19/54/15 1/55/16
s 1
f 2/61/17 11/62/18 17/30/19 18/29/20
f 13/1/4 14/105/21 10/3/22 1/4/1
f 7/7/12 10/106/22 14/2/21 15/8/9
s 4
f 7/56/23 24/57/24 25/53/14 10/52/13
s 1
f 16/35/25 17/30/19 11/62/18 8/63/26
s 2
f 61/23/8 60/44/7 62/49/27 63/24/28
s 1
f 9/90/29 14/105/21 13/1/4 3/6/30
f 15/8/9 14/2/21 9/107/29 5/71/31
f 5/71/31 22/70/32 23/67/10 15/8/9
f 12/89/33 17/30/19 16/35/25 6/31/34
f 18/29/20 17/30/19 12/89/33 4/69/35
f 13/1/4 20/64/3 21/68/36 3/6/30
f 20/64/3 19/65/2 2/61/17 18/29/20
f 21/68/36 20/64/3 18/29/20 4/69/35
s 2
f 60/44/7 59/43/6 64/47/37 65/48/38
f 62/49/27 60/44/7 65/48/38 66/50/39
s 1
f 23/67/10 22/70/32 6/31/34 16/35/25
f 24/66/11 23/67/10 16/35/25 8/63/26
s 4
f 25/53/14 24/57/24 8/60/40 11/58/41
f 19/54/15 25/53/14 11/58/41 2/59/42
s 6
f 3/80/43 21/79/44 27/81/45 26/10/46
f 9/5/47 3/80/43 26/10/46 28/11/48
f 22/72/49 5/9/50 30/12/51 29/73/52
f 5/9/50 9/5/47 28/11/48 30/12/51
f 21/79/44 4/82/53 31/83/54 27/81/45
f 4/25/53 12/26/55 32/27/56 31/28/54
f 12/26/55 6/76/57 33/32/58 32/27/56
f 6/76/57 22/72/49 29/73/52 33/32/58
f 26/10/46 27/81/45 35/94/59 34/13/60
f 28/11/48 26/10/46 34/13/60 36/95/61
f 29/73/52 30/12/51 38/74/62 37/91/63
f 30/12/51 28/11/48 36/95/61 38/74/62
f 27/81/45 31/83/54 39/86/64 35/94/59
f 31/28/54 32/27/56 40/92/65 39/93/64
f 32/27/56 33/32/58 41/36/66 40/92/65
f 33/32/58 29/73/52 37/91/63 41/36/66
s 2
f 34/85/67 35/84/68 43/87/69 42/88/70
f 36/14/71 34/96/67 42/16/70 44/17/72
f 37/75/73 38/15/74 46/18/75 45/77/76
f 38/15/74 36/14/71 44/17/72 46/18/75
f 35/84/68 39/34/77 47/38/78 43/87/69
f 39/34/77 40/33/79 48/37/80 47/38/78
f 40/33/79 41/78/81 49/39/82 48/37/80
f 41/78/81 37/75/73 45/77/76 49/39/82
f 42/88/70 43/87/69 51/101/83 50/104/84
f 44/17/72 42/16/70 50/19/84 52/102/85
f 45/77/76 46/18/75 54/103/86 53/97/87
f 46/18/75 44/17/72 52/102/85 54/103/86
f 43/87/69 47/38/78 55/100/88 51/101/83
f 47/38/78 48/37/80 56/99/89 55/100/88
f 48/37/80 49/39/82 57/98/90 56/99/89
f 49/39/82 45/77/76 53/97/87 57/98/90
f 50/45/84 51/46/83 59/43/6 58/22/5
f 52/20/85 50/45/84 58/22/5 61/23/8
f 53/51/87 54/21/86 63/24/28 62/49/27
f 54/21/86 52/20/85 61/23/8 63/24/28
f 51/46/83 55/41/88 64/47/37 59/43/6
f 55/41/88 56/40/89 65/48/38 64/47/37
f 56/40/89 57/42/90 66/50/39 65/48/38
f 57/42/90 53/51/87 62/49/27 66/50/39
