# This file uses centimeters as units for non-parametric coordinates.

g default
v -1.942323 0.077126 0.937061
v 1.786444 0.117354 1.051695
v -1.589830 0.077126 -1.620493
v 1.956713 0.117354 -1.524415
v -0.060598 0.042229 1.278512
v 0.060361 0.042229 -1.300383
v -2.060753 0.047949 1.128301
v 1.996148 0.088177 1.250132
v -1.691147 0.047949 -1.426836
v 2.053392 0.088177 -1.313516
v -0.074408 0.013052 1.277783
v 0.074408 0.013052 -1.299655
v -1.970361 0.000000 1.232291
v 1.757079 0.000000 1.439882
v -1.845785 0.000000 -1.346432
v 2.137726 0.000000 -1.113633
v -0.074408 0.000000 1.288719
v 0.074408 0.000000 -1.288719
vt 0.531048 0.022846
vt 0.999023 0.049825
vt 0.546806 0.346704
vt 0.991779 0.373984
vt 0.770277 0.000979
vt 0.756838 0.324941
vt 0.529991 0.319713
vt 0.281462 0.348669
vt 0.249560 0.026001
vt 0.470502 0.000977
vt 0.021324 0.355842
vt 0.000977 0.034435
vt 0.008829 0.374946
vt 0.246862 0.365532
vt 0.268716 0.689035
vt 0.027640 0.698641
vt 0.476683 0.344300
vt 0.527622 0.664514
vn 0.019422 0.999810 0.001790
vn -0.010676 0.999943 -0.000259
vn -0.011228 0.999937 -0.000296
vn 0.019422 0.999810 0.001790
vn -0.040379 0.999182 -0.002281
vn -0.040379 0.999182 -0.002281
vn 0.018462 0.999828 0.001865
vn -0.009814 0.999952 0.000159
vn -0.010735 0.999942 0.000104
vn 0.018462 0.999828 0.001865
vn -0.037092 0.999311 -0.001487
vn -0.037092 0.999311 -0.001487
vn 0.000000 1.000000 0.000000
vn 0.000000 1.000000 0.000000
vn 0.000000 1.000000 0.000000
vn 0.000000 1.000000 0.000000
vn 0.000000 1.000000 0.000000
vn 0.000000 1.000000 0.000000
s 1
g Newspaper
f 1/1/1 5/5/2 6/6/3 3/3/4
f 6/6/3 5/5/2 2/2/5 4/4/6
s 2
f 7/7/7 11/8/8 12/9/9 9/10/10
f 12/9/9 11/8/8 8/11/11 10/12/12
s 3
f 13/13/13 17/14/14 18/15/15 15/16/16
f 18/15/15 17/14/14 14/17/17 16/18/18
